<mxfile host="app.diagrams.net" modified="2020-03-23T22:17:32.309Z" agent="Mozilla/5.0 (Macintosh; Intel Mac OS X 10_14_5) AppleWebKit/537.36 (KHTML, like Gecko) Chrome/80.0.3987.132 Safari/537.36" etag="G4u4IiYvGJwuA1xOFiDn" version="12.8.8" type="github">
  <diagram id="sylalVcgzMzVZW4ac6Ib" name="Page-1">
    <mxGraphModel dx="1188" dy="636" grid="0" gridSize="10" guides="1" tooltips="1" connect="1" arrows="1" fold="1" page="1" pageScale="1" pageWidth="1100" pageHeight="850" background="#333333" math="0" shadow="0">
      <root>
        <mxCell id="0" />
        <mxCell id="1" parent="0" />
        <mxCell id="zhEII75TTDP8HIT-S5k--40" value="" style="rounded=1;whiteSpace=wrap;html=1;comic=1;strokeColor=#d6b656;strokeWidth=1;fillColor=#fff2cc;dashed=1;opacity=40;" vertex="1" parent="1">
          <mxGeometry x="847" y="300" width="70" height="371" as="geometry" />
        </mxCell>
        <mxCell id="zhEII75TTDP8HIT-S5k--41" value="" style="rounded=1;whiteSpace=wrap;html=1;comic=1;strokeColor=#b85450;strokeWidth=1;fillColor=#f8cecc;dashed=1;opacity=40;" vertex="1" parent="1">
          <mxGeometry x="919" y="300" width="70" height="371" as="geometry" />
        </mxCell>
        <mxCell id="zhEII75TTDP8HIT-S5k--39" value="" style="rounded=1;whiteSpace=wrap;html=1;comic=1;strokeColor=#6c8ebf;strokeWidth=1;fillColor=#dae8fc;" vertex="1" parent="1">
          <mxGeometry x="778" y="664" width="61" height="60" as="geometry" />
        </mxCell>
        <mxCell id="zhEII75TTDP8HIT-S5k--38" value="" style="rounded=1;whiteSpace=wrap;html=1;comic=1;strokeColor=#6c8ebf;strokeWidth=1;fillColor=#dae8fc;" vertex="1" parent="1">
          <mxGeometry x="778" y="246" width="61" height="60" as="geometry" />
        </mxCell>
        <mxCell id="zhEII75TTDP8HIT-S5k--35" value="" style="rounded=1;whiteSpace=wrap;html=1;comic=1;strokeColor=#6c8ebf;strokeWidth=1;fillColor=#dae8fc;" vertex="1" parent="1">
          <mxGeometry x="776" y="459" width="61" height="60" as="geometry" />
        </mxCell>
        <mxCell id="zhEII75TTDP8HIT-S5k--4" value="&lt;b&gt;Master&lt;/b&gt;" style="rounded=0;whiteSpace=wrap;html=1;comic=1;strokeWidth=3;fillColor=none;strokeColor=#6c8ebf;fontColor=#99CCFF;verticalAlign=bottom;horizontal=0;align=right;" vertex="1" parent="1">
          <mxGeometry x="371" y="393" width="244" height="176" as="geometry" />
        </mxCell>
        <mxCell id="zhEII75TTDP8HIT-S5k--34" value="" style="rounded=1;whiteSpace=wrap;html=1;comic=1;strokeColor=#6c8ebf;strokeWidth=1;fillColor=#dae8fc;" vertex="1" parent="1">
          <mxGeometry x="553.5" y="459" width="61" height="60" as="geometry" />
        </mxCell>
        <mxCell id="zhEII75TTDP8HIT-S5k--7" value="" style="rounded=0;orthogonalLoop=1;jettySize=auto;html=1;entryX=0;entryY=0.5;entryDx=0;entryDy=0;fillColor=#ffe6cc;strokeColor=#d79b00;strokeWidth=5;entryPerimeter=0;" edge="1" parent="1" source="zhEII75TTDP8HIT-S5k--5" target="zhEII75TTDP8HIT-S5k--8">
          <mxGeometry relative="1" as="geometry">
            <mxPoint x="432" y="348.5" as="targetPoint" />
          </mxGeometry>
        </mxCell>
        <mxCell id="zhEII75TTDP8HIT-S5k--5" value="&lt;font color=&quot;#333333&quot;&gt;.yaml&lt;/font&gt;" style="shape=note;whiteSpace=wrap;html=1;backgroundOutline=1;darkOpacity=0.05;comic=1;strokeWidth=3;fillColor=#ffe6cc;strokeColor=#d79b00;" vertex="1" parent="1">
          <mxGeometry x="146" y="445.12" width="56" height="79.75" as="geometry" />
        </mxCell>
        <mxCell id="zhEII75TTDP8HIT-S5k--8" value="" style="shape=providedRequiredInterface;html=1;verticalLabelPosition=bottom;comic=1;strokeColor=#6c8ebf;strokeWidth=3;fillColor=#dae8fc;" vertex="1" parent="1">
          <mxGeometry x="336" y="448.25" width="75" height="73.5" as="geometry" />
        </mxCell>
        <mxCell id="zhEII75TTDP8HIT-S5k--22" value="" style="edgeStyle=none;rounded=0;orthogonalLoop=1;jettySize=auto;html=1;strokeWidth=2;entryX=0;entryY=0.5;entryDx=0;entryDy=0;strokeColor=#FF8000;exitX=0.75;exitY=0;exitDx=0;exitDy=0;" edge="1" parent="1" source="zhEII75TTDP8HIT-S5k--34" target="zhEII75TTDP8HIT-S5k--1">
          <mxGeometry relative="1" as="geometry">
            <mxPoint x="757" y="278" as="targetPoint" />
          </mxGeometry>
        </mxCell>
        <mxCell id="zhEII75TTDP8HIT-S5k--12" value="" style="html=1;dashed=0;whitespace=wrap;fillColor=#2875E2;strokeColor=#ffffff;points=[[0.005,0.63,0],[0.1,0.2,0],[0.9,0.2,0],[0.5,0,0],[0.995,0.63,0],[0.72,0.99,0],[0.5,1,0],[0.28,0.99,0]];shape=mxgraph.kubernetes.icon;prIcon=sched;comic=1;" vertex="1" parent="1">
          <mxGeometry x="559" y="465" width="50" height="48" as="geometry" />
        </mxCell>
        <mxCell id="zhEII75TTDP8HIT-S5k--14" value="" style="html=1;dashed=0;whitespace=wrap;fillColor=#2875E2;strokeColor=#ffffff;points=[[0.005,0.63,0],[0.1,0.2,0],[0.9,0.2,0],[0.5,0,0],[0.995,0.63,0],[0.72,0.99,0],[0.5,1,0],[0.28,0.99,0]];shape=mxgraph.kubernetes.icon;prIcon=kubelet;comic=1;" vertex="1" parent="1">
          <mxGeometry x="783.5" y="252" width="50" height="48" as="geometry" />
        </mxCell>
        <mxCell id="zhEII75TTDP8HIT-S5k--15" value="" style="html=1;dashed=0;whitespace=wrap;fillColor=#2875E2;strokeColor=#ffffff;points=[[0.005,0.63,0],[0.1,0.2,0],[0.9,0.2,0],[0.5,0,0],[0.995,0.63,0],[0.72,0.99,0],[0.5,1,0],[0.28,0.99,0]];shape=mxgraph.kubernetes.icon;prIcon=kubelet;comic=1;" vertex="1" parent="1">
          <mxGeometry x="781.5" y="465" width="50" height="48" as="geometry" />
        </mxCell>
        <mxCell id="zhEII75TTDP8HIT-S5k--17" value="" style="html=1;dashed=0;whitespace=wrap;fillColor=#2875E2;strokeColor=#ffffff;points=[[0.005,0.63,0],[0.1,0.2,0],[0.9,0.2,0],[0.5,0,0],[0.995,0.63,0],[0.72,0.99,0],[0.5,1,0],[0.28,0.99,0]];shape=mxgraph.kubernetes.icon;prIcon=api;comic=1;" vertex="1" parent="1">
          <mxGeometry x="339" y="457.31" width="58" height="55.38" as="geometry" />
        </mxCell>
        <mxCell id="zhEII75TTDP8HIT-S5k--20" value="" style="html=1;dashed=0;whitespace=wrap;fillColor=#2875E2;strokeColor=#ffffff;points=[[0.005,0.63,0],[0.1,0.2,0],[0.9,0.2,0],[0.5,0,0],[0.995,0.63,0],[0.72,0.99,0],[0.5,1,0],[0.28,0.99,0]];shape=mxgraph.kubernetes.icon;prIcon=master;comic=1;" vertex="1" parent="1">
          <mxGeometry x="389" y="368" width="50" height="48" as="geometry" />
        </mxCell>
        <mxCell id="zhEII75TTDP8HIT-S5k--23" value="" style="edgeStyle=none;rounded=0;orthogonalLoop=1;jettySize=auto;html=1;strokeWidth=2;strokeColor=#FF8000;exitX=1;exitY=0.5;exitDx=0;exitDy=0;" edge="1" parent="1" source="zhEII75TTDP8HIT-S5k--34" target="zhEII75TTDP8HIT-S5k--35">
          <mxGeometry relative="1" as="geometry">
            <mxPoint x="645.594727319721" y="423" as="sourcePoint" />
            <mxPoint x="763.2500000000002" y="292.2399999999999" as="targetPoint" />
          </mxGeometry>
        </mxCell>
        <mxCell id="zhEII75TTDP8HIT-S5k--24" value="" style="html=1;dashed=0;whitespace=wrap;fillColor=#2875E2;strokeColor=#ffffff;points=[[0.005,0.63,0],[0.1,0.2,0],[0.9,0.2,0],[0.5,0,0],[0.995,0.63,0],[0.72,0.99,0],[0.5,1,0],[0.28,0.99,0]];shape=mxgraph.kubernetes.icon;prIcon=kubelet;comic=1;" vertex="1" parent="1">
          <mxGeometry x="781.5" y="670" width="50" height="48" as="geometry" />
        </mxCell>
        <mxCell id="zhEII75TTDP8HIT-S5k--25" value="" style="edgeStyle=none;rounded=0;orthogonalLoop=1;jettySize=auto;html=1;strokeWidth=2;entryX=0;entryY=0.5;entryDx=0;entryDy=0;strokeColor=#FF8000;exitX=0.75;exitY=1;exitDx=0;exitDy=0;" edge="1" parent="1" source="zhEII75TTDP8HIT-S5k--34" target="zhEII75TTDP8HIT-S5k--39">
          <mxGeometry relative="1" as="geometry">
            <mxPoint x="648.7499999999998" y="453.2399999999999" as="sourcePoint" />
            <mxPoint x="760.25" y="497.2399999999999" as="targetPoint" />
          </mxGeometry>
        </mxCell>
        <mxCell id="zhEII75TTDP8HIT-S5k--29" value="" style="html=1;dashed=0;whitespace=wrap;fillColor=#f8cecc;strokeColor=#b85450;points=[[0.005,0.63,0],[0.1,0.2,0],[0.9,0.2,0],[0.5,0,0],[0.995,0.63,0],[0.72,0.99,0],[0.5,1,0],[0.28,0.99,0]];shape=mxgraph.kubernetes.icon;prIcon=pod;comic=1;" vertex="1" parent="1">
          <mxGeometry x="929" y="309" width="50" height="48" as="geometry" />
        </mxCell>
        <mxCell id="zhEII75TTDP8HIT-S5k--30" value="" style="html=1;dashed=0;whitespace=wrap;fillColor=#f8cecc;strokeColor=#b85450;points=[[0.005,0.63,0],[0.1,0.2,0],[0.9,0.2,0],[0.5,0,0],[0.995,0.63,0],[0.72,0.99,0],[0.5,1,0],[0.28,0.99,0]];shape=mxgraph.kubernetes.icon;prIcon=pod;comic=1;" vertex="1" parent="1">
          <mxGeometry x="929" y="616" width="50" height="48" as="geometry" />
        </mxCell>
        <mxCell id="zhEII75TTDP8HIT-S5k--42" value="" style="html=1;dashed=0;whitespace=wrap;fillColor=#ffe6cc;strokeColor=#d79b00;points=[[0.005,0.63,0],[0.1,0.2,0],[0.9,0.2,0],[0.5,0,0],[0.995,0.63,0],[0.72,0.99,0],[0.5,1,0],[0.28,0.99,0]];shape=mxgraph.kubernetes.icon;prIcon=pod;comic=1;" vertex="1" parent="1">
          <mxGeometry x="857" y="616" width="50" height="48" as="geometry" />
        </mxCell>
        <mxCell id="zhEII75TTDP8HIT-S5k--43" value="" style="html=1;dashed=0;whitespace=wrap;fillColor=#ffe6cc;strokeColor=#d79b00;points=[[0.005,0.63,0],[0.1,0.2,0],[0.9,0.2,0],[0.5,0,0],[0.995,0.63,0],[0.72,0.99,0],[0.5,1,0],[0.28,0.99,0]];shape=mxgraph.kubernetes.icon;prIcon=pod;comic=1;" vertex="1" parent="1">
          <mxGeometry x="857" y="465" width="50" height="48" as="geometry" />
        </mxCell>
        <mxCell id="zhEII75TTDP8HIT-S5k--44" value="" style="html=1;dashed=0;whitespace=wrap;fillColor=#ffe6cc;strokeColor=#d79b00;points=[[0.005,0.63,0],[0.1,0.2,0],[0.9,0.2,0],[0.5,0,0],[0.995,0.63,0],[0.72,0.99,0],[0.5,1,0],[0.28,0.99,0]];shape=mxgraph.kubernetes.icon;prIcon=pod;comic=1;" vertex="1" parent="1">
          <mxGeometry x="857" y="309" width="50" height="48" as="geometry" />
        </mxCell>
        <mxCell id="zhEII75TTDP8HIT-S5k--46" value="" style="group;comic=1;" vertex="1" connectable="0" parent="1">
          <mxGeometry x="470.19" y="498" width="45.620000000000005" height="63" as="geometry" />
        </mxCell>
        <mxCell id="zhEII75TTDP8HIT-S5k--45" value="" style="shape=cylinder;whiteSpace=wrap;html=1;boundedLbl=1;backgroundOutline=1;dashed=1;comic=1;strokeColor=#6c8ebf;strokeWidth=1;fillColor=#dae8fc;align=right;opacity=90;dashPattern=1 1;" vertex="1" parent="zhEII75TTDP8HIT-S5k--46">
          <mxGeometry width="45.62" height="63" as="geometry" />
        </mxCell>
        <mxCell id="zhEII75TTDP8HIT-S5k--11" value="" style="html=1;dashed=0;whitespace=wrap;fillColor=#2875E2;strokeColor=#ffffff;points=[[0.005,0.63,0],[0.1,0.2,0],[0.9,0.2,0],[0.5,0,0],[0.995,0.63,0],[0.72,0.99,0],[0.5,1,0],[0.28,0.99,0]];shape=mxgraph.kubernetes.icon;prIcon=etcd;comic=1;" vertex="1" parent="zhEII75TTDP8HIT-S5k--46">
          <mxGeometry x="6.560000000000002" y="26" width="32.5" height="33" as="geometry" />
        </mxCell>
        <mxCell id="zhEII75TTDP8HIT-S5k--1" value="&lt;b&gt;Worker&lt;/b&gt;" style="rounded=0;whiteSpace=wrap;html=1;comic=1;strokeWidth=3;fillColor=none;strokeColor=#6c8ebf;verticalAlign=bottom;align=right;fontColor=#99CCFF;horizontal=0;" vertex="1" parent="1">
          <mxGeometry x="778" y="188" width="244" height="176" as="geometry" />
        </mxCell>
        <mxCell id="zhEII75TTDP8HIT-S5k--13" value="" style="html=1;dashed=0;whitespace=wrap;fillColor=#2875E2;strokeColor=#ffffff;points=[[0.005,0.63,0],[0.1,0.2,0],[0.9,0.2,0],[0.5,0,0],[0.995,0.63,0],[0.72,0.99,0],[0.5,1,0],[0.28,0.99,0]];shape=mxgraph.kubernetes.icon;prIcon=node;comic=1;" vertex="1" parent="1">
          <mxGeometry x="783.5" y="159" width="50" height="48" as="geometry" />
        </mxCell>
        <mxCell id="zhEII75TTDP8HIT-S5k--9" value="&lt;b&gt;Worker&lt;/b&gt;" style="rounded=0;whiteSpace=wrap;html=1;comic=1;strokeWidth=3;fillColor=none;strokeColor=#6c8ebf;verticalAlign=bottom;align=right;fontColor=#99CCFF;horizontal=0;" vertex="1" parent="1">
          <mxGeometry x="776" y="397" width="244" height="176" as="geometry" />
        </mxCell>
        <mxCell id="zhEII75TTDP8HIT-S5k--18" value="" style="html=1;dashed=0;whitespace=wrap;fillColor=#2875E2;strokeColor=#ffffff;points=[[0.005,0.63,0],[0.1,0.2,0],[0.9,0.2,0],[0.5,0,0],[0.995,0.63,0],[0.72,0.99,0],[0.5,1,0],[0.28,0.99,0]];shape=mxgraph.kubernetes.icon;prIcon=node;comic=1;" vertex="1" parent="1">
          <mxGeometry x="783.5" y="368" width="50" height="48" as="geometry" />
        </mxCell>
        <mxCell id="zhEII75TTDP8HIT-S5k--10" value="&lt;b&gt;Worker&lt;/b&gt;" style="rounded=0;whiteSpace=wrap;html=1;comic=1;strokeWidth=3;fillColor=none;strokeColor=#6c8ebf;verticalAlign=bottom;align=right;fontColor=#99CCFF;horizontal=0;" vertex="1" parent="1">
          <mxGeometry x="778" y="606" width="244" height="176" as="geometry" />
        </mxCell>
        <mxCell id="zhEII75TTDP8HIT-S5k--19" value="" style="html=1;dashed=0;whitespace=wrap;fillColor=#2875E2;strokeColor=#ffffff;points=[[0.005,0.63,0],[0.1,0.2,0],[0.9,0.2,0],[0.5,0,0],[0.995,0.63,0],[0.72,0.99,0],[0.5,1,0],[0.28,0.99,0]];shape=mxgraph.kubernetes.icon;prIcon=node;comic=1;" vertex="1" parent="1">
          <mxGeometry x="787" y="577" width="50" height="48" as="geometry" />
        </mxCell>
        <mxCell id="zhEII75TTDP8HIT-S5k--47" value="" style="rounded=1;whiteSpace=wrap;html=1;comic=1;strokeColor=#d6b656;strokeWidth=1;fillColor=#fff2cc;dashed=1;opacity=20;" vertex="1" parent="1">
          <mxGeometry x="847" y="227" width="70" height="446" as="geometry" />
        </mxCell>
        <mxCell id="zhEII75TTDP8HIT-S5k--48" value="" style="rounded=0;orthogonalLoop=1;jettySize=auto;html=1;entryX=0;entryY=0.5;entryDx=0;entryDy=0;fillColor=#ffe6cc;strokeColor=#d79b00;strokeWidth=5;exitX=1;exitY=0.5;exitDx=0;exitDy=0;exitPerimeter=0;" edge="1" parent="1" source="zhEII75TTDP8HIT-S5k--8" target="zhEII75TTDP8HIT-S5k--45">
          <mxGeometry relative="1" as="geometry">
            <mxPoint x="212" y="494.99586419753086" as="sourcePoint" />
            <mxPoint x="346" y="495" as="targetPoint" />
          </mxGeometry>
        </mxCell>
        <mxCell id="zhEII75TTDP8HIT-S5k--49" value="" style="rounded=0;orthogonalLoop=1;jettySize=auto;html=1;entryX=0;entryY=0.5;entryDx=0;entryDy=0;fillColor=#ffe6cc;strokeColor=#d79b00;strokeWidth=5;exitX=1;exitY=0.5;exitDx=0;exitDy=0;exitPerimeter=0;" edge="1" parent="1" source="zhEII75TTDP8HIT-S5k--8" target="zhEII75TTDP8HIT-S5k--34">
          <mxGeometry relative="1" as="geometry">
            <mxPoint x="421" y="495" as="sourcePoint" />
            <mxPoint x="480.19000000000005" y="539.5" as="targetPoint" />
          </mxGeometry>
        </mxCell>
      </root>
    </mxGraphModel>
  </diagram>
</mxfile>
